<svg width="19" height="20" viewBox="0 0 19 20" fill="none" xmlns="http://www.w3.org/2000/svg">
<path d="M19 9.9763C18.9992 4.82871 15.0424 0.582711 9.99592 0.314166C4.94945 0.0456217 0.579855 3.84854 0.0525261 8.96803C-0.474803 14.0875 3.02473 18.7315 8.01601 19.5358V12.7735H5.60428V9.9763H8.01601V7.84437C8.01601 5.41912 9.43443 4.07948 11.6039 4.07948C12.3164 4.08955 13.0272 4.15261 13.7307 4.26818V6.64989H12.5325C12.1189 6.59394 11.7028 6.73262 11.4017 7.02678C11.1006 7.32093 10.9471 7.73863 10.9847 8.1619V9.9763H13.6196L13.1981 12.7735H10.9847V19.5358C15.6013 18.7919 19.0007 14.7375 19 9.9763Z" fill="#FFFFFF"/>
</svg>
