<svg width="39" height="39" viewBox="0 0 39 39" fill="none" xmlns="http://www.w3.org/2000/svg">
<g clip-path="url(#clip0_988_621)">
<path d="M4.875 14.6255C4.875 13.7635 5.21741 12.9369 5.8269 12.3274C6.4364 11.7179 7.26305 11.3755 8.125 11.3755H30.875C31.737 11.3755 32.5636 11.7179 33.1731 12.3274C33.7826 12.9369 34.125 13.7635 34.125 14.6255V29.2505C34.125 30.1124 33.7826 30.9391 33.1731 31.5486C32.5636 32.1581 31.737 32.5005 30.875 32.5005H8.125C7.26305 32.5005 6.4364 32.1581 5.8269 31.5486C5.21741 30.9391 4.875 30.1124 4.875 29.2505V14.6255Z" stroke="#7E1515" stroke-width="3.25" stroke-linecap="round" stroke-linejoin="round"/>
<path d="M13 11.375V8.125C13 7.26305 13.3424 6.4364 13.9519 5.8269C14.5614 5.21741 15.388 4.875 16.25 4.875H22.75C23.612 4.875 24.4386 5.21741 25.0481 5.8269C25.6576 6.4364 26 7.26305 26 8.125V11.375" stroke="#7E1515" stroke-width="3.25" stroke-linecap="round" stroke-linejoin="round"/>
</g>
<defs>
<clipPath id="clip0_988_621">
<rect width="39" height="39" fill="white"/>
</clipPath>
</defs>
</svg>
