<svg width="39" height="39" viewBox="0 0 39 39" fill="none" xmlns="http://www.w3.org/2000/svg">
<g clip-path="url(#clip0_940_3919)">
<path d="M4.875 27.625C4.875 27.194 5.0462 26.7807 5.35095 26.476C5.6557 26.1712 6.06902 26 6.5 26H8.125C8.55598 26 8.9693 26.1712 9.27405 26.476C9.57879 26.7807 9.75 27.194 9.75 27.625V32.5C9.75 32.931 9.57879 33.3443 9.27405 33.649C8.9693 33.9538 8.55598 34.125 8.125 34.125H6.5C6.06902 34.125 5.6557 33.9538 5.35095 33.649C5.0462 33.3443 4.875 32.931 4.875 32.5V27.625Z" stroke="#7E1515" stroke-width="3.25" stroke-linecap="round" stroke-linejoin="round"/>
<path d="M9.75 32.4996C9.75 32.9306 9.92121 33.3439 10.226 33.6486C10.5307 33.9534 10.944 34.1246 11.375 34.1246H17.4785C17.8281 34.1246 18.1684 34.0119 18.4488 33.8032C18.7293 33.5944 18.9349 33.3008 19.0352 32.966L20.9852 28.091C21.1315 27.5986 21.2014 27.0672 20.8942 26.6545C20.5887 26.2417 20.0135 25.9996 19.5 25.9996H16.25V21.9907C16.2498 21.6072 16.1263 21.2339 15.8977 20.926C15.669 20.6181 15.3475 20.3919 14.9804 20.2808C14.6134 20.1697 14.2203 20.1795 13.8593 20.309C13.4983 20.4384 13.1885 20.6805 12.9756 20.9995L9.75 25.9996V32.4996Z" stroke="#7E1515" stroke-width="3.25" stroke-linecap="round" stroke-linejoin="round"/>
<path d="M22.75 4.875V11.375C22.75 11.806 22.9212 12.2193 23.226 12.524C23.5307 12.8288 23.944 13 24.375 13H30.875" stroke="#7E1515" stroke-width="3.25" stroke-linecap="round" stroke-linejoin="round"/>
<path d="M8.125 19.6625V8.125C8.125 7.26305 8.46741 6.4364 9.0769 5.8269C9.6864 5.21741 10.513 4.875 11.375 4.875H22.75L30.875 13V30.875C30.875 31.737 30.5326 32.5636 29.9231 33.1731C29.3136 33.7826 28.487 34.125 27.625 34.125H23.8875" stroke="#7E1515" stroke-width="3.25" stroke-linecap="round" stroke-linejoin="round"/>
</g>
<defs>
<clipPath id="clip0_940_3919">
<rect width="39" height="39" fill="white"/>
</clipPath>
</defs>
</svg>
