<?xml version="1.0" encoding="UTF-8"?>
<svg width="3000px" height="226px" viewBox="0 0 3000 226" xmlns="http://www.w3.org/2000/svg" xmlns:xlink="http://www.w3.org/1999/xlink" version="1.1">
 <!-- Generated by Pixelmator Pro 2.0.8 -->
 <g id="group">
  <g id="group-1"/>
  <g id="group-2">
   <path id="Path" d="M262.105 216.305 C234.235 216.305 210.44 206.608 191.534 188.11 173.688 170.509 164.153 147.04 164.153 118.845 164.153 98.554 169.044 80.462 179.067 63.104 195.854 34.42 228.613 15.761 265.12 15.761 292.175 15.761 315.155 24.153 333.571 40.614 353.373 58.46 364.13 84.13 364.13 113.956 364.048 139.217 356.225 161.953 340.823 180.614 321.918 203.92 294.619 216.305 262.105 216.305 Z M497.692 216.305 C484.736 216.305 477.89 208.157 467.948 194.386 L420.358 127.563 C418.158 124.63 416.038 122.674 416.038 120.229 416.038 118.355 417.996 116.97 420.114 116.97 423.048 116.97 427.692 118.03 434.13 118.03 472.267 118.03 491.499 103.687 491.499 75.003 491.499 46.319 470.149 25.784 436.819 25.784 429.485 25.784 420.603 26.842 409.765 28.798 408.135 45.91 407.89 62.942 407.89 80.544 L407.89 151.196 C407.89 168.716 408.135 186.073 409.765 203.43 428.426 205.06 437.634 206.934 437.634 210.438 437.634 212.313 436.33 212.884 433.56 212.884 429.241 212.884 417.016 210.684 397.866 210.684 380.509 210.684 369.426 212.884 364.374 212.884 361.359 212.884 360.056 212.313 360.056 210.438 360.056 206.934 368.695 205.305 386.052 203.43 387.682 186.888 387.925 169.612 387.925 151.196 L387.925 80.544 C387.925 62.453 387.682 45.097 386.052 28.636 368.776 26.68 360.056 25.132 360.056 21.628 360.056 19.754 361.44 18.938 364.374 18.938 369.182 18.938 380.59 21.382 397.866 21.382 412.779 21.382 429.241 19.262 446.599 19.262 487.751 19.262 511.546 38.495 511.546 66.364 511.546 96.678 485.55 120.718 440.649 123.733 L490.439 187.866 C498.261 197.889 503.153 203.839 511.546 203.839 517.495 203.839 522.056 200.579 524.827 200.579 526.131 200.579 526.946 201.393 526.946 202.778 526.946 206.038 513.175 216.305 497.692 216.305 Z M536.808 213.21 C533.874 213.21 532.487 212.639 532.487 210.764 532.487 207.261 541.126 205.631 558.483 203.757 560.195 187.133 560.439 169.775 560.439 151.44 L560.439 80.788 C560.439 62.371 560.195 45.097 558.565 28.636 541.29 26.68 532.569 25.132 532.569 21.628 532.569 19.754 533.954 18.938 536.888 18.938 541.777 18.938 552.86 21.382 570.462 21.382 586.678 21.382 601.836 18.694 616.423 18.694 675.421 18.694 712.743 56.016 712.743 115.014 712.743 173.687 673.546 213.21 614.222 213.21 599.635 213.21 584.966 211.009 570.38 211.009 553.104 211.009 541.697 213.21 536.808 213.21 Z M716.737 213.046 C713.804 213.046 712.417 212.476 712.417 210.602 712.417 207.098 721.055 205.469 738.331 203.595 739.961 187.133 740.206 169.775 740.206 151.44 L740.206 80.544 C740.206 62.453 739.961 45.097 738.331 28.636 720.974 26.68 712.417 25.132 712.417 21.628 712.417 19.754 713.722 18.938 716.737 18.938 721.627 18.938 732.952 21.382 750.31 21.382 767.667 21.382 778.995 18.938 783.884 18.938 786.818 18.938 788.202 19.754 788.202 21.628 788.202 25.132 779.565 26.761 762.208 28.636 760.578 45.911 760.333 63.024 760.333 80.544 L760.333 113.792 859.915 113.792 859.915 80.544 C859.915 60.253 859.67 43.222 858.04 28.636 840.764 26.68 832.044 25.132 832.044 21.628 832.044 19.754 833.431 18.938 836.364 18.938 841.254 18.938 852.579 21.382 869.937 21.382 887.212 21.382 898.865 18.938 903.755 18.938 906.689 18.938 907.831 19.754 907.831 21.628 907.831 25.132 899.193 26.761 881.917 28.636 880.287 45.911 880.042 63.024 880.042 80.544 L880.042 151.44 C880.042 169.042 880.369 186.318 881.917 203.595 897.822 205.32 906.405 206.839 907.667 209.803 908.926 206.838 917.515 205.32 933.499 203.595 941.567 188.193 949.145 171.161 957.05 152.175 L998.69 50.473 C994.046 39.961 989.482 29.94 984.023 20.161 L1006.515 10.708 C1010.589 27.494 1019.472 51.533 1032.755 82.907 L1064.128 157.307 C1071.136 174.338 1078.225 190.067 1085.722 203.595 1095.458 204.651 1102.475 205.631 1106.747 206.911 1110.773 205.692 1117.239 204.675 1126.142 203.512 1130.705 187.54 1135.594 160.241 1139.343 122.593 L1146.351 50.882 C1140.483 36.784 1135.594 28.472 1126.874 25.702 1121.414 24.072 1117.097 24.641 1117.097 21.382 1117.097 19.508 1118.482 18.694 1121.415 18.694 1123.371 18.694 1130.869 20.079 1144.151 20.079 1147.329 20.079 1150.914 20.079 1154.907 19.835 1163.545 41.511 1170.31 56.668 1174.466 65.061 L1219.284 156.737 1269.319 19.835 C1276.654 20.079 1281.788 20.079 1284.966 20.079 1298.249 20.079 1305.826 18.694 1307.944 18.694 1310.96 18.694 1312.265 19.508 1312.265 21.382 1312.265 24.397 1305.257 25.701 1291.159 28.389 L1299.796 147.122 C1301.1 164.479 1302.974 183.383 1306.56 203.348 1321.717 205.793 1329.296 207.178 1329.296 210.356 1329.296 212.231 1327.993 212.802 1324.978 212.802 1319.844 212.802 1308.679 210.602 1291.403 210.602 1274.046 210.602 1262.719 212.802 1257.585 212.802 1254.57 212.802 1253.509 212.231 1253.509 210.356 1253.509 206.852 1262.718 204.897 1281.624 203.348 1281.95 199.6 1281.95 195.526 1281.95 191.208 1281.95 180.125 1281.38 167.657 1280.239 154.13 L1271.112 33.442 1217.247 182.243 C1216.188 185.503 1215.373 186.889 1213.499 186.889 1211.869 186.889 1211.299 185.258 1209.995 182.569 L1151.566 62.454 1146.677 119.985 C1144.802 141.091 1143.987 161.871 1143.987 182.733 1143.987 189.741 1143.987 196.504 1144.232 203.512 1163.952 205.142 1173.405 207.016 1173.405 210.52 1173.405 212.394 1172.102 212.966 1169.087 212.966 1164.279 212.966 1153.196 210.764 1135.595 210.764 1124.848 210.764 1116.289 212.205 1110.089 212.755 1109.411 212.961 1108.519 213.046 1107.4 213.046 1106.958 213.046 1106.38 213.014 1105.689 212.96 1105.019 212.946 1104.439 212.897 1103.944 212.803 1098.043 212.234 1086.495 210.846 1069.261 210.846 1048.725 210.846 1036.258 213.046 1032.265 213.046 1029.25 213.046 1027.864 212.476 1027.864 210.602 1027.864 206.854 1038.459 205.143 1059.239 203.595 1055.735 189.496 1050.601 176.865 1045.956 165.212 L1039.437 149.809 966.421 149.809 961.368 163.827 C958.109 172.465 954.36 185.748 949.96 203.595 970.821 204.98 981.333 206.854 981.333 210.602 981.333 212.476 980.03 213.046 977.015 213.046 971.31 213.046 960.799 210.846 945.398 210.846 928.04 210.846 916.713 213.046 911.579 213.046 909.281 213.046 908.082 212.697 907.671 211.645 907.278 212.697 906.116 213.046 903.755 213.046 898.621 213.046 887.212 210.846 869.937 210.846 852.579 210.846 841.498 213.046 836.364 213.046 833.431 213.046 832.044 212.476 832.044 210.602 832.044 207.098 840.683 205.469 858.04 203.595 859.67 186.563 859.915 169.286 859.915 151.44 L859.915 120.067 760.333 120.067 760.333 151.44 C760.333 169.042 760.578 186.318 762.208 203.595 779.565 205.469 788.202 207.098 788.202 210.602 788.202 212.476 786.899 213.046 783.884 213.046 778.75 213.046 767.667 210.846 750.31 210.846 733.034 210.846 721.953 213.046 716.737 213.046 Z M6.878 212.884 C3.863 212.884 2.56 212.313 2.56 210.438 2.56 206.934 11.198 205.305 28.556 203.43 30.186 186.969 30.429 169.611 30.429 151.276 L30.429 80.382 C30.429 62.291 30.104 44.932 28.556 28.471 11.198 26.516 2.56 24.968 2.56 21.464 2.56 19.59 3.863 18.774 6.878 18.774 9.567 18.774 20.65 20.649 40.452 20.649 L69.138 20.649 C91.955 20.731 117.135 19.1 144.679 15.596 L147.366 6.387 C148.181 3.943 149.241 2.884 150.626 2.884 152.256 2.884 152.501 3.943 152.501 6.387 152.501 9.403 150.382 18.285 150.382 32.628 150.382 47.785 151.442 56.424 151.442 58.298 151.442 59.928 150.627 61.231 149.323 61.231 146.879 61.231 146.308 58.298 145.493 52.839 L143.048 35.235 C128.217 30.346 105.482 26.843 77.612 26.843 70.604 26.843 62.209 27.412 52.431 28.471 50.801 45.747 50.558 62.862 50.558 80.382 L50.558 110.37 80.626 110.37 C101.732 110.37 120.15 108.495 135.226 104.421 L136.855 97.087 C139.055 87.064 139.3 82.499 142.56 82.499 143.701 82.499 144.189 83.558 144.189 85.759 144.189 88.774 141.745 98.716 141.745 115.259 141.745 130.415 143.374 140.114 143.374 144.188 143.374 146.063 142.56 147.448 141.175 147.448 138.241 147.448 137.914 142.883 136.528 132.534 L135.144 123.083 C120.557 119.008 102.141 116.889 80.546 116.889 L50.476 116.889 50.476 151.276 C50.476 168.878 50.802 186.155 52.351 203.43 73.131 205.06 83.48 206.69 83.48 210.438 83.48 212.313 82.093 212.884 79.159 212.884 76.959 212.884 64.573 211.009 40.452 211.009 20.732 211.009 9.567 212.884 6.878 212.884 Z M610.556 207.425 C659.205 207.425 689.519 172.791 689.519 116.563 689.519 58.135 660.019 24.561 609.169 24.561 599.961 24.561 590.997 25.865 582.44 28.636 580.811 45.911 580.485 63.267 580.485 80.788 L580.485 151.44 C580.485 169.042 580.729 186.317 582.44 203.593 592.382 206.038 601.836 207.425 610.556 207.425 Z M278.48 204.817 C293.557 204.685 307.378 200.082 318.903 192.266 339.439 177.924 350.276 157.877 350.276 134.327 350.276 110.532 341.884 87.225 325.993 66.934 305.947 41.754 278.892 27.983 251.593 27.983 207.751 27.983 178.007 58.541 178.007 100.182 178.007 121.533 186.972 145.329 204.003 166.19 224.62 191.044 251.348 204.815 277.017 204.815 277.506 204.82 277.993 204.821 278.48 204.817 Z M969.274 143.536 L1037.4 143.536 1002.521 58.868 969.274 143.536 Z M1422.194 23.827 C1422.194 21.953 1423.498 21.138 1426.431 21.138 1431.239 21.138 1442.648 23.501 1459.679 23.501 1476.711 23.501 1487.875 21.138 1492.683 21.138 1495.616 21.138 1496.92 21.953 1496.92 23.827 1496.92 27.25 1488.364 28.88 1471.332 30.754 L1467.584 133.105 C1467.584 136.527 1467.339 140.031 1467.339 143.21 1467.339 189.741 1480.378 209.135 1518.596 209.135 1545.162 209.135 1563.579 198.541 1572.298 179.146 1578.41 165.619 1579.795 146.958 1579.795 122.022 L1579.795 94.886 C1579.795 72.558 1578.166 51.045 1574.743 30.835 1556.652 28.961 1547.607 27.331 1547.607 23.908 1547.607 22.034 1548.911 21.219 1551.926 21.219 1555.674 21.219 1565.208 23.094 1580.61 23.094 1596.012 23.094 1605.628 21.219 1609.376 21.219 1612.31 21.219 1613.369 22.034 1613.369 23.908 1613.369 27.087 1606.198 28.39 1591.774 30.835 1589.656 43.303 1588.841 64.898 1587.537 95.457 L1586.233 125.526 C1585.174 148.669 1585.174 167.494 1577.188 183.466 1566.757 203.92 1545.57 215.328 1515.255 215.328 1487.06 215.328 1466.606 204.979 1456.501 187.133 1448.271 172.546 1448.026 153.396 1448.026 126.993 L1448.026 30.835 C1430.995 28.88 1422.194 27.331 1422.194 23.827 Z M1652.158 134.653 C1652.158 162.278 1653.951 185.177 1656.885 202.779 1676.279 204.409 1686.14 205.957 1686.14 209.706 1686.14 211.58 1684.51 212.15 1681.902 212.15 1677.094 212.15 1666.745 210.031 1650.284 210.031 1637.49 210.031 1627.956 212.15 1622.089 212.15 1619.481 212.15 1618.096 211.58 1618.096 209.706 1618.096 206.527 1625.267 205.224 1640.179 202.779 1643.113 190.8 1645.476 169.775 1645.476 140.847 L1645.476 44.851 C1631.704 25.701 1619.481 27.331 1619.481 23.827 1619.481 21.953 1621.111 21.138 1623.718 21.138 1625.022 21.138 1632.193 22.686 1646.291 22.686 1648.98 22.686 1651.832 22.442 1655.01 22.442 L1772.274 175.806 1772.274 99.775 C1772.274 68.728 1770.645 45.829 1768.037 30.672 1749.62 29.042 1740.656 27.168 1740.656 23.746 1740.656 21.872 1741.96 21.056 1744.649 21.056 1749.131 21.056 1759.562 23.419 1775.941 23.419 1788.735 23.419 1798.27 21.056 1803.892 21.056 1806.582 21.056 1807.885 21.872 1807.885 23.746 1807.885 27.168 1799.899 28.798 1783.927 30.672 1780.505 50.637 1779.119 79.566 1779.119 117.866 L1779.119 210.928 1779.119 212.802 C1779.119 214.432 1779.119 215.165 1777.816 215.165 1776.512 215.165 1774.637 213.861 1772.274 210.683 L1652.077 52.511 1652.077 134.653 Z M1864.032 202.779 C1881.063 204.653 1889.538 206.202 1889.538 209.706 1889.538 211.58 1888.234 212.15 1885.301 212.15 1880.248 212.15 1869.329 210.031 1852.297 210.031 1835.266 210.031 1824.346 212.15 1819.375 212.15 1816.442 212.15 1815.138 211.58 1815.138 209.706 1815.138 206.283 1823.613 204.653 1840.644 202.779 1842.193 186.562 1842.518 169.531 1842.518 151.44 L1842.518 81.766 C1842.518 63.92 1842.274 46.889 1840.644 30.754 1823.613 28.88 1815.138 27.25 1815.138 23.827 1815.138 21.953 1816.442 21.138 1819.375 21.138 1824.183 21.138 1835.348 23.501 1852.297 23.501 1869.329 23.501 1880.493 21.138 1885.301 21.138 1888.234 21.138 1889.538 21.953 1889.538 23.827 1889.538 27.25 1881.063 28.88 1864.032 30.754 1862.484 47.785 1862.157 64.491 1862.157 81.766 L1862.157 151.44 C1862.157 168.716 1862.484 185.748 1864.032 202.779 Z M1893.531 23.827 C1893.531 21.953 1894.835 21.138 1897.769 21.138 1903.88 21.138 1913.496 23.501 1925.72 23.501 1937.129 23.501 1946.174 21.138 1952.53 21.138 1955.464 21.138 1956.849 21.953 1956.849 23.827 1956.849 27.005 1949.596 28.309 1935.01 30.754 L1996.209 189.741 2019.596 134.164 C2032.553 103.606 2043.799 68.484 2052.599 30.754 2037.931 28.309 2030.76 27.005 2030.76 23.827 2030.76 21.953 2032.064 21.138 2034.998 21.138 2038.665 21.138 2046.977 22.686 2059.771 22.686 2072.483 22.686 2080.713 21.138 2084.462 21.138 2087.396 21.138 2088.699 21.953 2088.699 23.827 2088.699 26.761 2082.588 27.82 2070.12 30.754 2060.015 52.837 2050.481 75.655 2040.865 98.553 L1994.416 209.379 C1992.786 213.128 1990.912 215.247 1990.178 215.247 1988.304 215.247 1987.815 213.699 1986.756 211.254 L1913.333 30.754 C1900.214 28.064 1893.531 26.761 1893.531 23.827 Z M2233.344 18.041 L2235.951 8.996 C2236.766 6.552 2237.825 5.574 2239.211 5.574 2240.841 5.574 2241.004 6.633 2241.004 8.996 2241.004 11.93 2238.967 20.649 2238.967 34.828 2238.967 49.741 2240.026 58.216 2240.026 60.09 2240.026 61.72 2239.211 63.024 2237.907 63.024 2235.544 63.024 2234.974 60.09 2234.159 54.793 L2231.795 37.518 C2217.127 32.709 2194.881 29.287 2167.418 29.287 2160.492 29.287 2152.261 29.776 2142.727 30.917 2141.097 47.948 2140.853 64.654 2140.853 81.93 L2140.853 111.429 2170.352 111.429 C2191.051 111.429 2209.141 109.554 2224.054 105.561 L2225.684 98.39 C2227.802 88.53 2228.128 84.048 2231.225 84.048 2232.366 84.048 2232.855 85.107 2232.855 87.226 2232.855 90.16 2230.41 99.939 2230.41 116.237 2230.41 131.149 2232.04 140.683 2232.04 144.676 2232.04 146.551 2231.225 147.855 2229.921 147.855 2226.988 147.855 2226.743 143.373 2225.358 133.268 L2224.054 123.978 C2209.712 119.985 2191.621 117.866 2170.352 117.866 L2140.853 117.866 2140.853 151.603 C2140.853 168.879 2141.097 185.911 2142.727 202.942 2148.594 203.187 2154.38 203.431 2160.247 203.431 2188.932 203.431 2213.623 199.193 2233.099 191.778 L2235.462 176.376 C2236.196 171.079 2236.766 168.39 2239.129 168.39 2240.189 168.39 2241.248 169.45 2241.248 171.324 2241.248 173.198 2239.944 181.673 2239.944 196.585 2239.944 210.439 2241.819 217.855 2241.819 219.403 2241.819 221.766 2241.574 223.151 2239.944 223.151 2238.64 223.151 2237.825 221.848 2237.011 219.403 L2234.811 214.595 C2208.815 211.906 2180.294 210.358 2149.002 210.358 L2127.977 210.358 C2111.761 210.358 2101.656 212.232 2097.908 212.232 2094.974 212.232 2093.67 211.661 2093.67 209.787 2093.67 206.364 2102.145 204.734 2119.258 202.86 2120.806 186.644 2121.051 169.613 2121.051 151.522 L2121.051 81.848 C2121.051 64.002 2120.806 46.97 2119.258 30.835 2102.227 28.961 2093.67 27.331 2093.67 23.909 2093.67 22.034 2094.974 21.22 2097.908 21.22 2100.597 21.22 2111.516 23.094 2130.911 23.094 L2159.025 23.094 C2181.435 23.012 2206.208 21.464 2233.344 18.041 Z M2305.299 81.848 L2305.299 151.195 C2305.299 168.472 2305.544 185.503 2307.174 202.534 2325.509 204.164 2334.554 205.957 2334.554 209.461 2334.554 211.335 2333.25 211.824 2330.561 211.824 2326.324 211.824 2314.345 209.705 2295.439 209.705 2278.408 209.705 2267.488 211.824 2262.436 211.824 2259.502 211.824 2258.198 211.254 2258.198 209.461 2258.198 206.038 2266.673 204.409 2283.786 202.534 2285.334 186.318 2285.66 169.286 2285.66 151.195 L2285.66 81.848 C2285.66 64.001 2285.416 46.97 2283.786 30.835 2266.755 28.961 2258.198 27.331 2258.198 23.908 2258.198 22.034 2259.502 21.219 2262.436 21.219 2267.243 21.219 2278.408 23.583 2295.439 23.583 2310.107 23.583 2326.324 21.464 2343.274 21.464 2383.693 21.464 2407.08 40.37 2407.08 67.668 2407.08 97.494 2381.574 121.126 2337.488 124.059 L2386.382 187.051 C2394.042 196.912 2398.85 202.779 2407.08 202.779 2412.947 202.779 2417.429 199.6 2420.118 199.6 2421.422 199.6 2422.156 200.416 2422.156 201.719 2422.156 204.898 2408.628 215.002 2393.471 215.002 2380.759 215.002 2374.077 207.016 2364.217 193.489 L2317.441 127.808 C2315.323 124.874 2313.204 123 2313.204 120.637 2313.204 118.763 2315.078 117.459 2317.197 117.459 2320.131 117.459 2324.612 118.518 2331.05 118.518 2368.536 118.518 2387.36 104.42 2387.36 76.225 2387.36 48.03 2366.417 27.82 2333.658 27.82 2326.405 27.82 2317.686 28.88 2307.092 30.754 2305.462 47.785 2305.299 64.491 2305.299 81.848 Z M2439.105 216.876 C2438.046 219.81 2437.313 221.359 2435.438 221.359 2433.809 221.359 2432.994 220.543 2432.994 218.995 2432.994 215.247 2437.313 199.845 2437.313 172.465 2437.313 159.182 2436.009 150.137 2436.009 145.654 2436.009 142.476 2436.579 140.847 2438.372 140.847 2442.039 140.847 2443.425 153.885 2446.928 180.206 2465.997 196.667 2484.903 204.898 2503.238 204.898 2531.923 204.898 2553.436 184.443 2553.436 161.545 2553.436 152.5 2550.258 145.899 2544.146 141.661 2530.863 132.616 2512.283 131.557 2488 127.808 2454.018 122.756 2437.557 107.354 2437.557 79.973 2437.557 43.548 2464.123 18.286 2502.342 18.286 2516.684 18.286 2532.656 21.709 2549.198 29.205 L2553.68 15.923 C2554.74 12.989 2555.229 11.359 2557.673 11.359 2559.221 11.359 2559.466 12.174 2559.466 13.722 2559.466 18.204 2554.169 33.932 2554.169 61.557 2554.169 67.669 2554.74 72.151 2554.74 75.084 2554.74 78.018 2553.925 79.566 2552.05 79.566 2548.057 79.566 2547.568 70.276 2546.183 50.067 2531.596 35.969 2514.076 28.553 2494.6 28.553 2465.916 28.553 2444.891 48.193 2444.891 70.032 2444.891 92.849 2462.167 97.168 2498.593 103.524 2513.18 106.132 2528.093 107.517 2541.62 113.629 2554.169 119.252 2561.829 133.023 2561.829 150.299 2561.829 186.97 2532.9 214.921 2491.667 214.921 2476.509 214.921 2460.537 211.172 2443.506 203.512 Z M2623.599 202.779 C2640.63 204.653 2649.105 206.202 2649.105 209.706 2649.105 211.58 2647.801 212.15 2644.867 212.15 2639.815 212.15 2628.896 210.031 2611.864 210.031 2594.833 210.031 2583.995 212.15 2578.942 212.15 2576.009 212.15 2574.705 211.58 2574.705 209.706 2574.705 206.283 2583.18 204.653 2600.211 202.779 2601.841 186.562 2602.085 169.531 2602.085 151.44 L2602.085 81.766 C2602.085 63.92 2601.841 46.889 2600.211 30.754 2583.18 28.88 2574.705 27.25 2574.705 23.827 2574.705 21.953 2576.009 21.138 2578.942 21.138 2583.75 21.138 2594.833 23.501 2611.864 23.501 2628.896 23.501 2640.06 21.138 2644.867 21.138 2647.801 21.138 2649.105 21.953 2649.105 23.827 2649.105 27.25 2640.63 28.88 2623.599 30.754 2621.969 47.785 2621.724 64.491 2621.724 81.766 L2621.724 151.44 C2621.724 168.716 2621.969 185.748 2623.599 202.779 Z M2749.337 202.779 C2769.302 204.409 2779.407 205.957 2779.407 209.706 2779.407 211.58 2778.022 212.15 2775.17 212.15 2771.421 212.15 2758.953 210.031 2737.684 210.031 2716.416 210.031 2703.948 212.15 2700.199 212.15 2697.265 212.15 2695.88 211.58 2695.88 209.706 2695.88 206.038 2705.985 204.409 2725.95 202.779 2727.498 186.562 2727.824 169.531 2727.824 151.44 L2727.824 81.766 C2727.824 63.187 2727.498 45.911 2725.95 29.613 2724.89 29.613 2723.75 29.613 2722.772 29.613 2699.302 29.613 2679.99 32.546 2665.077 37.354 L2662.632 54.63 C2661.817 59.927 2661.328 62.861 2658.965 62.861 2657.58 62.861 2656.765 61.557 2656.765 59.927 2656.765 58.053 2657.824 49.822 2657.824 34.665 2657.824 20.812 2655.706 12.093 2655.706 8.344 2655.706 6.47 2656.765 5.411 2657.824 5.411 2659.128 5.411 2659.943 6.47 2660.758 8.833 L2663.447 17.878 C2690.828 21.301 2715.845 22.931 2737.603 22.931 2759.442 22.931 2784.378 21.382 2811.759 17.878 L2814.611 8.833 C2815.507 6.388 2816.24 5.411 2817.544 5.411 2819.174 5.411 2819.5 6.47 2819.5 8.833 2819.5 11.767 2817.381 20.486 2817.381 34.665 2817.381 49.578 2818.441 58.053 2818.441 59.927 2818.441 61.557 2817.626 62.861 2816.24 62.861 2813.877 62.861 2813.307 59.927 2812.573 54.63 L2810.373 37.354 C2795.461 32.546 2776.066 29.613 2752.434 29.613 2751.375 29.613 2750.234 29.613 2749.256 29.613 2747.626 46.644 2747.382 63.92 2747.382 81.766 L2747.382 151.44 C2747.463 168.716 2747.708 185.748 2749.337 202.779 Z M2828.708 23.827 C2828.708 21.953 2830.094 21.138 2832.946 21.138 2838.243 21.138 2847.859 23.256 2861.956 23.256 2874.75 23.256 2884.04 21.138 2889.663 21.138 2892.515 21.138 2893.9 21.953 2893.9 23.827 2893.9 27.005 2886.729 28.309 2872.142 30.754 L2919.488 109.962 2943.69 72.151 C2952.166 58.868 2959.092 45.014 2964.389 30.672 2949.558 28.228 2942.061 26.924 2942.061 23.746 2942.061 21.871 2943.365 21.056 2946.298 21.056 2950.047 21.056 2958.277 22.605 2971.071 22.605 2983.783 22.605 2992.014 21.056 2995.762 21.056 2998.696 21.056 3000 21.871 3000 23.746 3000 26.679 2993.888 27.739 2981.42 30.672 2972.701 41.022 2963.9 53.815 2954.366 68.157 L2922.177 117.051 2922.177 151.359 C2922.177 168.634 2922.422 185.666 2924.052 202.697 2941.083 204.572 2949.558 206.12 2949.558 209.624 2949.558 211.498 2948.173 212.069 2945.239 212.069 2940.268 212.069 2929.348 209.95 2912.317 209.95 2895.286 209.95 2884.366 212.069 2879.313 212.069 2876.38 212.069 2875.076 211.498 2875.076 209.624 2875.076 206.202 2883.551 204.572 2900.583 202.697 2902.131 186.481 2902.457 169.45 2902.457 151.359 L2902.457 118.926 2848.429 30.672 C2835.391 28.064 2828.708 26.761 2828.708 23.827 Z" fill="#900028" fill-opacity="1" stroke="#900028" stroke-width="4.074" stroke-opacity="1" stroke-linejoin="round" stroke-linecap="round"/>
  </g>
 </g>
</svg>
