<svg width="18" height="19" viewBox="0 0 18 19" fill="none" xmlns="http://www.w3.org/2000/svg">
<path fill-rule="evenodd" clip-rule="evenodd" d="M5.28937 0.367656C6.24937 0.323618 6.55575 0.312988 9 0.312988C11.4443 0.312988 11.7506 0.323618 12.7106 0.367656C14.1739 0.435232 15.4583 0.798166 16.4895 1.84217C17.5211 2.88656 17.8792 4.1872 17.946 5.66779C17.9895 6.63967 18 6.94983 18 9.42432C18 11.8988 17.9895 12.209 17.946 13.1808C17.8792 14.6622 17.5208 15.9625 16.4895 17.0065C15.4579 18.0508 14.1727 18.4134 12.7106 18.481C11.7506 18.525 11.4443 18.5356 9 18.5356C6.55575 18.5356 6.24937 18.525 5.28937 18.481C3.82612 18.4134 2.54175 18.0505 1.5105 17.0065C0.478875 15.9621 0.12075 14.6614 0.054 13.1808C0.0105 12.209 0 11.8988 0 9.42432C0 6.94983 0.0105 6.63967 0.054 5.66779C0.12075 4.18644 0.47925 2.88618 1.5105 1.84217C2.54212 0.797787 3.82687 0.435232 5.28937 0.367656ZM12.6368 2.0077C11.6876 1.96366 11.403 1.95455 9 1.95455C6.597 1.95455 6.31238 1.96404 5.36325 2.0077C4.33913 2.05515 3.3885 2.26281 2.65725 3.00311C1.926 3.7434 1.72088 4.70579 1.674 5.74258C1.6305 6.70345 1.6215 6.99159 1.6215 9.42432C1.6215 11.857 1.63087 12.1452 1.674 13.1061C1.72088 14.1428 1.926 15.1052 2.65725 15.8455C3.3885 16.5858 4.33913 16.7935 5.36325 16.8409C6.312 16.885 6.59663 16.8941 9 16.8941C11.4034 16.8941 11.688 16.8846 12.6368 16.8409C13.6609 16.7935 14.6115 16.5858 15.3427 15.8455C16.074 15.1052 16.2791 14.1428 16.326 13.1061C16.3695 12.1452 16.3785 11.857 16.3785 9.42432C16.3785 6.99159 16.3691 6.70345 16.326 5.74258C16.2791 4.70579 16.074 3.7434 15.3427 3.00311C14.6115 2.26281 13.6609 2.05515 12.6368 2.0077Z" fill="#161C2D"/>
<path fill-rule="evenodd" clip-rule="evenodd" d="M4.90912 9.83838C4.90912 7.32249 6.9236 5.28271 9.40912 5.28271C11.8946 5.28271 13.9091 7.32212 13.9091 9.83838C13.9091 12.3546 11.8946 14.394 9.40912 14.394C6.9236 14.394 4.90912 12.3543 4.90912 9.83838ZM6.48799 9.83838C6.48799 11.4715 7.79592 12.7956 9.40912 12.7956C11.0223 12.7956 12.3302 11.4715 12.3302 9.83838C12.3302 8.20523 11.0223 6.88112 9.40912 6.88112C7.79592 6.88112 6.48799 8.20523 6.48799 9.83838Z" fill="#161C2D"/>
<ellipse cx="13.5" cy="4.86843" rx="1.22727" ry="1.24245" fill="#161C2D"/>
</svg>
