<svg width="18" height="19" viewBox="0 0 18 19" fill="none" xmlns="http://www.w3.org/2000/svg">
<path fill-rule="evenodd" clip-rule="evenodd" d="M0.75 0.312988H17.25C17.6625 0.312988 18 0.654663 18 1.07227V17.7764C18 18.194 17.6625 18.5356 17.25 18.5356H0.75C0.3375 18.5356 0 18.194 0 17.7764V1.07227C0 0.654663 0.3375 0.312988 0.75 0.312988ZM2.6625 15.8402H5.325V7.14648H2.6625V15.8402ZM4.0125 5.9696C3.15 5.9696 2.475 5.28625 2.475 4.41309C2.475 3.53992 3.15 2.85657 4.0125 2.85657C4.875 2.85657 5.55 3.53992 5.55 4.41309C5.55 5.24829 4.875 5.9696 4.0125 5.9696ZM12.675 15.8402H15.3V11.0568C15.3 8.703 14.8125 6.9187 12.1125 6.9187C10.8375 6.9187 9.9375 7.64002 9.6 8.32337H9.5625V7.14648H7.0125V15.8402H9.675V11.5503C9.675 10.4114 9.9 9.31043 11.2875 9.31043C12.675 9.31043 12.675 10.6012 12.675 11.6262V15.8402Z" fill="#161C2D"/>
</svg>
