<svg width="39" height="39" viewBox="0 0 39 39" fill="none" xmlns="http://www.w3.org/2000/svg">
<g clip-path="url(#clip0_988_630)">
<path d="M13 11.375C13 13.0989 13.6848 14.7522 14.9038 15.9712C16.1228 17.1902 17.7761 17.875 19.5 17.875C21.2239 17.875 22.8772 17.1902 24.0962 15.9712C25.3152 14.7522 26 13.0989 26 11.375C26 9.65109 25.3152 7.99779 24.0962 6.77881C22.8772 5.55982 21.2239 4.875 19.5 4.875C17.7761 4.875 16.1228 5.55982 14.9038 6.77881C13.6848 7.99779 13 9.65109 13 11.375Z" stroke="#7E1515" stroke-width="3.25" stroke-linecap="round" stroke-linejoin="round"/>
<path d="M9.75 34.125V30.875C9.75 29.1511 10.4348 27.4978 11.6538 26.2788C12.8728 25.0598 14.5261 24.375 16.25 24.375H22.75C24.4739 24.375 26.1272 25.0598 27.3462 26.2788C28.5652 27.4978 29.25 29.1511 29.25 30.875V34.125" stroke="#7E1515" stroke-width="3.25" stroke-linecap="round" stroke-linejoin="round"/>
</g>
<defs>
<clipPath id="clip0_988_630">
<rect width="39" height="39" fill="white"/>
</clipPath>
</defs>
</svg>
