<svg width="17" height="16" viewBox="0 0 17 16" fill="none" xmlns="http://www.w3.org/2000/svg">
<path d="M17 2.0991C16.3625 2.4122 15.6896 2.6079 14.9812 2.72531C15.6896 2.25565 16.2563 1.51203 16.5042 0.611857C15.8313 1.04237 15.0875 1.35548 14.2729 1.55117C13.6354 0.807547 12.7146 0.337891 11.7229 0.337891C9.81042 0.337891 8.25208 2.05996 8.25208 4.17342C8.25208 4.48652 8.2875 4.76049 8.35833 5.03445C5.48958 4.8779 2.90417 3.35152 1.16875 1.00324C0.885417 1.59031 0.708333 2.21651 0.708333 2.921C0.708333 4.25169 1.31042 5.42583 2.26667 6.13032C1.7 6.09118 1.16875 5.93463 0.672917 5.66066V5.6998C0.672917 7.57842 1.87708 9.14394 3.47083 9.49618C3.1875 9.57446 2.86875 9.6136 2.55 9.6136C2.3375 9.6136 2.08958 9.57446 1.87708 9.53532C2.3375 11.0617 3.6125 12.1967 5.13542 12.1967C3.93125 13.2143 2.44375 13.8405 0.814583 13.8405C0.53125 13.8405 0.247917 13.8405 0 13.8014C1.55833 14.8972 3.36458 15.5234 5.34792 15.5234C11.7583 15.5234 15.2646 9.65274 15.2646 4.5648C15.2646 4.40824 15.2646 4.21255 15.2646 4.056C15.9375 3.54721 16.5396 2.88186 17 2.0991Z" fill="#FFFFFF"/>
</svg>
